M48
; DRILL file {KiCad (5.1.5)-3} date 7.06.2020 19:07:38
; FORMAT={3:3/ absolute / metric / suppress leading zeros}
; #@! TF.CreationDate,2020-06-07T19:07:38+03:00
; #@! TF.GenerationSoftware,Kicad,Pcbnew,(5.1.5)-3
FMAT,2
METRIC,TZ
T1C0.500
T2C0.800
T3C0.900
T4C1.000
T5C1.010
T6C1.100
T7C1.200
T8C1.300
T9C1.600
T10C3.200
%
G90
G05
T1
X180215Y-117530
X180918Y-115833
X180918Y-119227
X182615Y-115130
X182615Y-119930
X184312Y-115833
X184312Y-119227
X185015Y-117530
X115215Y-82530
X115918Y-80833
X115918Y-84227
X117615Y-80130
X117615Y-84930
X119312Y-80833
X119312Y-84227
X120015Y-82530
X180215Y-82530
X180918Y-80833
X180918Y-84227
X182615Y-80130
X182615Y-84930
X184312Y-80833
X184312Y-84227
X185015Y-82530
X115215Y-117530
X115918Y-115833
X115918Y-119227
X117615Y-115130
X117615Y-119930
X119312Y-115833
X119312Y-119227
X120015Y-117530
T2
X138303Y-88265
X145923Y-88265
X153000Y-90000
X155540Y-90000
X158080Y-90000
X125980Y-88265
X133600Y-88265
X148500Y-96200
X148500Y-103820
X138684Y-116000
X146304Y-116000
X135636Y-112000
X135636Y-117000
X138684Y-120700
X146304Y-120700
X118400Y-90000
X120940Y-90000
X123480Y-90000
X161780Y-82100
X169400Y-82100
X182100Y-89500
X184600Y-89500
X177000Y-83600
X177000Y-91220
X190900Y-96180
X190900Y-103820
X161800Y-86000
X169420Y-86000
X113900Y-96200
X113900Y-103820
X161800Y-90000
X169420Y-90000
X173500Y-83600
X173500Y-91220
X186690Y-97600
X186690Y-102600
X138684Y-111300
X146304Y-111300
X125980Y-84455
X133600Y-84455
T3
X148900Y-116000
X151440Y-116000
X148900Y-120700
X151440Y-120700
X148900Y-111300
X151440Y-111300
T4
X128270Y-112000
X128270Y-117000
X154559Y-108585
X157099Y-108585
X161671Y-112200
X161671Y-119800
T5
X109068Y-102362
X110868Y-97262
T6
X169600Y-112750
X169600Y-119250
X174100Y-112750
X174100Y-119250
T7
X195500Y-98090
X195500Y-101900
X152990Y-79500
X156800Y-79500
X105000Y-98100
X105000Y-101910
X139890Y-79500
X143700Y-79500
T8
X118400Y-96200
X118400Y-103820
X133720Y-96200
X133720Y-103820
X138720Y-96200
X138720Y-103820
X143720Y-96200
X143720Y-103820
X153000Y-96200
X153000Y-103820
X168320Y-96200
X168320Y-103820
X173320Y-96200
X173320Y-103820
X178320Y-96200
X178320Y-103820
T9
X105410Y-110490
X120650Y-110490
T10
X182615Y-117530
X117615Y-82530
X182615Y-82530
X117615Y-117530
T0
M30
