G04 #@! TF.GenerationSoftware,KiCad,Pcbnew,(5.1.5)-3*
G04 #@! TF.CreationDate,2020-06-07T19:07:22+03:00*
G04 #@! TF.ProjectId,WaterLevelController_V1,57617465-724c-4657-9665-6c436f6e7472,rev?*
G04 #@! TF.SameCoordinates,Original*
G04 #@! TF.FileFunction,Soldermask,Top*
G04 #@! TF.FilePolarity,Negative*
%FSLAX46Y46*%
G04 Gerber Fmt 4.6, Leading zero omitted, Abs format (unit mm)*
G04 Created by KiCad (PCBNEW (5.1.5)-3) date 2020-06-07 19:07:22*
%MOMM*%
%LPD*%
G04 APERTURE LIST*
%ADD10C,0.100000*%
G04 APERTURE END LIST*
D10*
G36*
X151717395Y-119785546D02*
G01*
X151890466Y-119857234D01*
X151959729Y-119903514D01*
X152046227Y-119961310D01*
X152178690Y-120093773D01*
X152221284Y-120157520D01*
X152282766Y-120249534D01*
X152354454Y-120422605D01*
X152391000Y-120606333D01*
X152391000Y-120793667D01*
X152354454Y-120977395D01*
X152282766Y-121150466D01*
X152282765Y-121150467D01*
X152178690Y-121306227D01*
X152046227Y-121438690D01*
X152023092Y-121454148D01*
X151890466Y-121542766D01*
X151717395Y-121614454D01*
X151533667Y-121651000D01*
X151346333Y-121651000D01*
X151162605Y-121614454D01*
X150989534Y-121542766D01*
X150856908Y-121454148D01*
X150833773Y-121438690D01*
X150701310Y-121306227D01*
X150597235Y-121150467D01*
X150597234Y-121150466D01*
X150525546Y-120977395D01*
X150489000Y-120793667D01*
X150489000Y-120606333D01*
X150525546Y-120422605D01*
X150597234Y-120249534D01*
X150658716Y-120157520D01*
X150701310Y-120093773D01*
X150833773Y-119961310D01*
X150920271Y-119903514D01*
X150989534Y-119857234D01*
X151162605Y-119785546D01*
X151346333Y-119749000D01*
X151533667Y-119749000D01*
X151717395Y-119785546D01*
G37*
G36*
X149851000Y-121651000D02*
G01*
X147949000Y-121651000D01*
X147949000Y-119749000D01*
X149851000Y-119749000D01*
X149851000Y-121651000D01*
G37*
G36*
X138932228Y-119881703D02*
G01*
X139087100Y-119945853D01*
X139226481Y-120038985D01*
X139345015Y-120157519D01*
X139438147Y-120296900D01*
X139502297Y-120451772D01*
X139535000Y-120616184D01*
X139535000Y-120783816D01*
X139502297Y-120948228D01*
X139438147Y-121103100D01*
X139345015Y-121242481D01*
X139226481Y-121361015D01*
X139087100Y-121454147D01*
X138932228Y-121518297D01*
X138767816Y-121551000D01*
X138600184Y-121551000D01*
X138435772Y-121518297D01*
X138280900Y-121454147D01*
X138141519Y-121361015D01*
X138022985Y-121242481D01*
X137929853Y-121103100D01*
X137865703Y-120948228D01*
X137833000Y-120783816D01*
X137833000Y-120616184D01*
X137865703Y-120451772D01*
X137929853Y-120296900D01*
X138022985Y-120157519D01*
X138141519Y-120038985D01*
X138280900Y-119945853D01*
X138435772Y-119881703D01*
X138600184Y-119849000D01*
X138767816Y-119849000D01*
X138932228Y-119881703D01*
G37*
G36*
X146552228Y-119881703D02*
G01*
X146707100Y-119945853D01*
X146846481Y-120038985D01*
X146965015Y-120157519D01*
X147058147Y-120296900D01*
X147122297Y-120451772D01*
X147155000Y-120616184D01*
X147155000Y-120783816D01*
X147122297Y-120948228D01*
X147058147Y-121103100D01*
X146965015Y-121242481D01*
X146846481Y-121361015D01*
X146707100Y-121454147D01*
X146552228Y-121518297D01*
X146387816Y-121551000D01*
X146220184Y-121551000D01*
X146055772Y-121518297D01*
X145900900Y-121454147D01*
X145761519Y-121361015D01*
X145642985Y-121242481D01*
X145549853Y-121103100D01*
X145485703Y-120948228D01*
X145453000Y-120783816D01*
X145453000Y-120616184D01*
X145485703Y-120451772D01*
X145549853Y-120296900D01*
X145642985Y-120157519D01*
X145761519Y-120038985D01*
X145900900Y-119945853D01*
X146055772Y-119881703D01*
X146220184Y-119849000D01*
X146387816Y-119849000D01*
X146552228Y-119881703D01*
G37*
G36*
X161977564Y-118789389D02*
G01*
X162168833Y-118868615D01*
X162168835Y-118868616D01*
X162180996Y-118876742D01*
X162340973Y-118983635D01*
X162487365Y-119130027D01*
X162602385Y-119302167D01*
X162681611Y-119493436D01*
X162722000Y-119696484D01*
X162722000Y-119903516D01*
X162681611Y-120106564D01*
X162602771Y-120296900D01*
X162602384Y-120297835D01*
X162487365Y-120469973D01*
X162340973Y-120616365D01*
X162168835Y-120731384D01*
X162168834Y-120731385D01*
X162168833Y-120731385D01*
X161977564Y-120810611D01*
X161774516Y-120851000D01*
X161567484Y-120851000D01*
X161364436Y-120810611D01*
X161173167Y-120731385D01*
X161173166Y-120731385D01*
X161173165Y-120731384D01*
X161001027Y-120616365D01*
X160854635Y-120469973D01*
X160739616Y-120297835D01*
X160739229Y-120296900D01*
X160660389Y-120106564D01*
X160620000Y-119903516D01*
X160620000Y-119696484D01*
X160660389Y-119493436D01*
X160739615Y-119302167D01*
X160854635Y-119130027D01*
X161001027Y-118983635D01*
X161161004Y-118876742D01*
X161173165Y-118868616D01*
X161173167Y-118868615D01*
X161364436Y-118789389D01*
X161567484Y-118749000D01*
X161774516Y-118749000D01*
X161977564Y-118789389D01*
G37*
G36*
X183249239Y-114341467D02*
G01*
X183563282Y-114403934D01*
X184154926Y-114649001D01*
X184687392Y-115004784D01*
X185140216Y-115457608D01*
X185495999Y-115990074D01*
X185741066Y-116581718D01*
X185741066Y-116581719D01*
X185866000Y-117209803D01*
X185866000Y-117850197D01*
X185826058Y-118051000D01*
X185741066Y-118478282D01*
X185495999Y-119069926D01*
X185248265Y-119440685D01*
X185140217Y-119602391D01*
X184687391Y-120055217D01*
X184610543Y-120106565D01*
X184154926Y-120410999D01*
X183563282Y-120656066D01*
X183249239Y-120718533D01*
X182935197Y-120781000D01*
X182294803Y-120781000D01*
X181980761Y-120718533D01*
X181666718Y-120656066D01*
X181075074Y-120410999D01*
X180619457Y-120106565D01*
X180542609Y-120055217D01*
X180089783Y-119602391D01*
X179981735Y-119440685D01*
X179734001Y-119069926D01*
X179488934Y-118478282D01*
X179403942Y-118051000D01*
X179364000Y-117850197D01*
X179364000Y-117209803D01*
X179488934Y-116581719D01*
X179488934Y-116581718D01*
X179734001Y-115990074D01*
X180089784Y-115457608D01*
X180542608Y-115004784D01*
X181075074Y-114649001D01*
X181666718Y-114403934D01*
X181980761Y-114341467D01*
X182294803Y-114279000D01*
X182935197Y-114279000D01*
X183249239Y-114341467D01*
G37*
G36*
X118249239Y-114341467D02*
G01*
X118563282Y-114403934D01*
X119154926Y-114649001D01*
X119687392Y-115004784D01*
X120140216Y-115457608D01*
X120495999Y-115990074D01*
X120741066Y-116581718D01*
X120741066Y-116581719D01*
X120866000Y-117209803D01*
X120866000Y-117850197D01*
X120826058Y-118051000D01*
X120741066Y-118478282D01*
X120495999Y-119069926D01*
X120248265Y-119440685D01*
X120140217Y-119602391D01*
X119687391Y-120055217D01*
X119610543Y-120106565D01*
X119154926Y-120410999D01*
X118563282Y-120656066D01*
X118249239Y-120718533D01*
X117935197Y-120781000D01*
X117294803Y-120781000D01*
X116980761Y-120718533D01*
X116666718Y-120656066D01*
X116075074Y-120410999D01*
X115619457Y-120106565D01*
X115542609Y-120055217D01*
X115089783Y-119602391D01*
X114981735Y-119440685D01*
X114734001Y-119069926D01*
X114488934Y-118478282D01*
X114403942Y-118051000D01*
X114364000Y-117850197D01*
X114364000Y-117209803D01*
X114488934Y-116581719D01*
X114488934Y-116581718D01*
X114734001Y-115990074D01*
X115089784Y-115457608D01*
X115542608Y-115004784D01*
X116075074Y-114649001D01*
X116666718Y-114403934D01*
X116980761Y-114341467D01*
X117294803Y-114279000D01*
X117935197Y-114279000D01*
X118249239Y-114341467D01*
G37*
G36*
X169906564Y-118239389D02*
G01*
X170097833Y-118318615D01*
X170097835Y-118318616D01*
X170269973Y-118433635D01*
X170416365Y-118580027D01*
X170531385Y-118752167D01*
X170610611Y-118943436D01*
X170651000Y-119146484D01*
X170651000Y-119353516D01*
X170610611Y-119556564D01*
X170544417Y-119716371D01*
X170531384Y-119747835D01*
X170416365Y-119919973D01*
X170269973Y-120066365D01*
X170097835Y-120181384D01*
X170097834Y-120181385D01*
X170097833Y-120181385D01*
X169906564Y-120260611D01*
X169703516Y-120301000D01*
X169496484Y-120301000D01*
X169293436Y-120260611D01*
X169102167Y-120181385D01*
X169102166Y-120181385D01*
X169102165Y-120181384D01*
X168930027Y-120066365D01*
X168783635Y-119919973D01*
X168668616Y-119747835D01*
X168655583Y-119716371D01*
X168589389Y-119556564D01*
X168549000Y-119353516D01*
X168549000Y-119146484D01*
X168589389Y-118943436D01*
X168668615Y-118752167D01*
X168783635Y-118580027D01*
X168930027Y-118433635D01*
X169102165Y-118318616D01*
X169102167Y-118318615D01*
X169293436Y-118239389D01*
X169496484Y-118199000D01*
X169703516Y-118199000D01*
X169906564Y-118239389D01*
G37*
G36*
X174406564Y-118239389D02*
G01*
X174597833Y-118318615D01*
X174597835Y-118318616D01*
X174769973Y-118433635D01*
X174916365Y-118580027D01*
X175031385Y-118752167D01*
X175110611Y-118943436D01*
X175151000Y-119146484D01*
X175151000Y-119353516D01*
X175110611Y-119556564D01*
X175044417Y-119716371D01*
X175031384Y-119747835D01*
X174916365Y-119919973D01*
X174769973Y-120066365D01*
X174597835Y-120181384D01*
X174597834Y-120181385D01*
X174597833Y-120181385D01*
X174406564Y-120260611D01*
X174203516Y-120301000D01*
X173996484Y-120301000D01*
X173793436Y-120260611D01*
X173602167Y-120181385D01*
X173602166Y-120181385D01*
X173602165Y-120181384D01*
X173430027Y-120066365D01*
X173283635Y-119919973D01*
X173168616Y-119747835D01*
X173155583Y-119716371D01*
X173089389Y-119556564D01*
X173049000Y-119353516D01*
X173049000Y-119146484D01*
X173089389Y-118943436D01*
X173168615Y-118752167D01*
X173283635Y-118580027D01*
X173430027Y-118433635D01*
X173602165Y-118318616D01*
X173602167Y-118318615D01*
X173793436Y-118239389D01*
X173996484Y-118199000D01*
X174203516Y-118199000D01*
X174406564Y-118239389D01*
G37*
G36*
X128576564Y-115989389D02*
G01*
X128767833Y-116068615D01*
X128767835Y-116068616D01*
X128790583Y-116083816D01*
X128939973Y-116183635D01*
X129086365Y-116330027D01*
X129201385Y-116502167D01*
X129280611Y-116693436D01*
X129321000Y-116896484D01*
X129321000Y-117103516D01*
X129280611Y-117306564D01*
X129206460Y-117485580D01*
X129201384Y-117497835D01*
X129086365Y-117669973D01*
X128939973Y-117816365D01*
X128767835Y-117931384D01*
X128767834Y-117931385D01*
X128767833Y-117931385D01*
X128576564Y-118010611D01*
X128373516Y-118051000D01*
X128166484Y-118051000D01*
X127963436Y-118010611D01*
X127772167Y-117931385D01*
X127772166Y-117931385D01*
X127772165Y-117931384D01*
X127600027Y-117816365D01*
X127453635Y-117669973D01*
X127338616Y-117497835D01*
X127333540Y-117485580D01*
X127259389Y-117306564D01*
X127219000Y-117103516D01*
X127219000Y-116896484D01*
X127259389Y-116693436D01*
X127338615Y-116502167D01*
X127453635Y-116330027D01*
X127600027Y-116183635D01*
X127749417Y-116083816D01*
X127772165Y-116068616D01*
X127772167Y-116068615D01*
X127963436Y-115989389D01*
X128166484Y-115949000D01*
X128373516Y-115949000D01*
X128576564Y-115989389D01*
G37*
G36*
X135884228Y-116181703D02*
G01*
X136039100Y-116245853D01*
X136178481Y-116338985D01*
X136297015Y-116457519D01*
X136390147Y-116596900D01*
X136454297Y-116751772D01*
X136487000Y-116916184D01*
X136487000Y-117083816D01*
X136454297Y-117248228D01*
X136390147Y-117403100D01*
X136297015Y-117542481D01*
X136178481Y-117661015D01*
X136039100Y-117754147D01*
X135884228Y-117818297D01*
X135719816Y-117851000D01*
X135552184Y-117851000D01*
X135387772Y-117818297D01*
X135232900Y-117754147D01*
X135093519Y-117661015D01*
X134974985Y-117542481D01*
X134881853Y-117403100D01*
X134817703Y-117248228D01*
X134785000Y-117083816D01*
X134785000Y-116916184D01*
X134817703Y-116751772D01*
X134881853Y-116596900D01*
X134974985Y-116457519D01*
X135093519Y-116338985D01*
X135232900Y-116245853D01*
X135387772Y-116181703D01*
X135552184Y-116149000D01*
X135719816Y-116149000D01*
X135884228Y-116181703D01*
G37*
G36*
X151717395Y-115085546D02*
G01*
X151890466Y-115157234D01*
X151927086Y-115181703D01*
X152046227Y-115261310D01*
X152178690Y-115393773D01*
X152221284Y-115457520D01*
X152282766Y-115549534D01*
X152354454Y-115722605D01*
X152391000Y-115906333D01*
X152391000Y-116093667D01*
X152354454Y-116277395D01*
X152282766Y-116450466D01*
X152248222Y-116502165D01*
X152178690Y-116606227D01*
X152046227Y-116738690D01*
X152023092Y-116754148D01*
X151890466Y-116842766D01*
X151717395Y-116914454D01*
X151533667Y-116951000D01*
X151346333Y-116951000D01*
X151162605Y-116914454D01*
X150989534Y-116842766D01*
X150856908Y-116754148D01*
X150833773Y-116738690D01*
X150701310Y-116606227D01*
X150631778Y-116502165D01*
X150597234Y-116450466D01*
X150525546Y-116277395D01*
X150489000Y-116093667D01*
X150489000Y-115906333D01*
X150525546Y-115722605D01*
X150597234Y-115549534D01*
X150658716Y-115457520D01*
X150701310Y-115393773D01*
X150833773Y-115261310D01*
X150952914Y-115181703D01*
X150989534Y-115157234D01*
X151162605Y-115085546D01*
X151346333Y-115049000D01*
X151533667Y-115049000D01*
X151717395Y-115085546D01*
G37*
G36*
X149851000Y-116951000D02*
G01*
X147949000Y-116951000D01*
X147949000Y-115049000D01*
X149851000Y-115049000D01*
X149851000Y-116951000D01*
G37*
G36*
X138932228Y-115181703D02*
G01*
X139087100Y-115245853D01*
X139226481Y-115338985D01*
X139345015Y-115457519D01*
X139438147Y-115596900D01*
X139502297Y-115751772D01*
X139535000Y-115916184D01*
X139535000Y-116083816D01*
X139502297Y-116248228D01*
X139438147Y-116403100D01*
X139345015Y-116542481D01*
X139226481Y-116661015D01*
X139087100Y-116754147D01*
X138932228Y-116818297D01*
X138767816Y-116851000D01*
X138600184Y-116851000D01*
X138435772Y-116818297D01*
X138280900Y-116754147D01*
X138141519Y-116661015D01*
X138022985Y-116542481D01*
X137929853Y-116403100D01*
X137865703Y-116248228D01*
X137833000Y-116083816D01*
X137833000Y-115916184D01*
X137865703Y-115751772D01*
X137929853Y-115596900D01*
X138022985Y-115457519D01*
X138141519Y-115338985D01*
X138280900Y-115245853D01*
X138435772Y-115181703D01*
X138600184Y-115149000D01*
X138767816Y-115149000D01*
X138932228Y-115181703D01*
G37*
G36*
X146552228Y-115181703D02*
G01*
X146707100Y-115245853D01*
X146846481Y-115338985D01*
X146965015Y-115457519D01*
X147058147Y-115596900D01*
X147122297Y-115751772D01*
X147155000Y-115916184D01*
X147155000Y-116083816D01*
X147122297Y-116248228D01*
X147058147Y-116403100D01*
X146965015Y-116542481D01*
X146846481Y-116661015D01*
X146707100Y-116754147D01*
X146552228Y-116818297D01*
X146387816Y-116851000D01*
X146220184Y-116851000D01*
X146055772Y-116818297D01*
X145900900Y-116754147D01*
X145761519Y-116661015D01*
X145642985Y-116542481D01*
X145549853Y-116403100D01*
X145485703Y-116248228D01*
X145453000Y-116083816D01*
X145453000Y-115916184D01*
X145485703Y-115751772D01*
X145549853Y-115596900D01*
X145642985Y-115457519D01*
X145761519Y-115338985D01*
X145900900Y-115245853D01*
X146055772Y-115181703D01*
X146220184Y-115149000D01*
X146387816Y-115149000D01*
X146552228Y-115181703D01*
G37*
G36*
X174406564Y-111739389D02*
G01*
X174597833Y-111818615D01*
X174597835Y-111818616D01*
X174769973Y-111933635D01*
X174916365Y-112080027D01*
X175030606Y-112251000D01*
X175031385Y-112252167D01*
X175110611Y-112443436D01*
X175151000Y-112646484D01*
X175151000Y-112853516D01*
X175110611Y-113056564D01*
X175031385Y-113247833D01*
X175031384Y-113247835D01*
X174916365Y-113419973D01*
X174769973Y-113566365D01*
X174597835Y-113681384D01*
X174597834Y-113681385D01*
X174597833Y-113681385D01*
X174406564Y-113760611D01*
X174203516Y-113801000D01*
X173996484Y-113801000D01*
X173793436Y-113760611D01*
X173602167Y-113681385D01*
X173602166Y-113681385D01*
X173602165Y-113681384D01*
X173430027Y-113566365D01*
X173283635Y-113419973D01*
X173168616Y-113247835D01*
X173168615Y-113247833D01*
X173089389Y-113056564D01*
X173049000Y-112853516D01*
X173049000Y-112646484D01*
X173089389Y-112443436D01*
X173168615Y-112252167D01*
X173169395Y-112251000D01*
X173283635Y-112080027D01*
X173430027Y-111933635D01*
X173602165Y-111818616D01*
X173602167Y-111818615D01*
X173793436Y-111739389D01*
X173996484Y-111699000D01*
X174203516Y-111699000D01*
X174406564Y-111739389D01*
G37*
G36*
X169906564Y-111739389D02*
G01*
X170097833Y-111818615D01*
X170097835Y-111818616D01*
X170269973Y-111933635D01*
X170416365Y-112080027D01*
X170530606Y-112251000D01*
X170531385Y-112252167D01*
X170610611Y-112443436D01*
X170651000Y-112646484D01*
X170651000Y-112853516D01*
X170610611Y-113056564D01*
X170531385Y-113247833D01*
X170531384Y-113247835D01*
X170416365Y-113419973D01*
X170269973Y-113566365D01*
X170097835Y-113681384D01*
X170097834Y-113681385D01*
X170097833Y-113681385D01*
X169906564Y-113760611D01*
X169703516Y-113801000D01*
X169496484Y-113801000D01*
X169293436Y-113760611D01*
X169102167Y-113681385D01*
X169102166Y-113681385D01*
X169102165Y-113681384D01*
X168930027Y-113566365D01*
X168783635Y-113419973D01*
X168668616Y-113247835D01*
X168668615Y-113247833D01*
X168589389Y-113056564D01*
X168549000Y-112853516D01*
X168549000Y-112646484D01*
X168589389Y-112443436D01*
X168668615Y-112252167D01*
X168669395Y-112251000D01*
X168783635Y-112080027D01*
X168930027Y-111933635D01*
X169102165Y-111818616D01*
X169102167Y-111818615D01*
X169293436Y-111739389D01*
X169496484Y-111699000D01*
X169703516Y-111699000D01*
X169906564Y-111739389D01*
G37*
G36*
X162722000Y-113251000D02*
G01*
X160620000Y-113251000D01*
X160620000Y-111149000D01*
X162722000Y-111149000D01*
X162722000Y-113251000D01*
G37*
G36*
X129321000Y-113051000D02*
G01*
X127219000Y-113051000D01*
X127219000Y-110949000D01*
X129321000Y-110949000D01*
X129321000Y-113051000D01*
G37*
G36*
X135884228Y-111181703D02*
G01*
X136039100Y-111245853D01*
X136178481Y-111338985D01*
X136297015Y-111457519D01*
X136390147Y-111596900D01*
X136454297Y-111751772D01*
X136487000Y-111916184D01*
X136487000Y-112083816D01*
X136454297Y-112248228D01*
X136390147Y-112403100D01*
X136297015Y-112542481D01*
X136178481Y-112661015D01*
X136039100Y-112754147D01*
X135884228Y-112818297D01*
X135719816Y-112851000D01*
X135552184Y-112851000D01*
X135387772Y-112818297D01*
X135232900Y-112754147D01*
X135093519Y-112661015D01*
X134974985Y-112542481D01*
X134881853Y-112403100D01*
X134817703Y-112248228D01*
X134785000Y-112083816D01*
X134785000Y-111916184D01*
X134817703Y-111751772D01*
X134881853Y-111596900D01*
X134974985Y-111457519D01*
X135093519Y-111338985D01*
X135232900Y-111245853D01*
X135387772Y-111181703D01*
X135552184Y-111149000D01*
X135719816Y-111149000D01*
X135884228Y-111181703D01*
G37*
G36*
X151717395Y-110385546D02*
G01*
X151890466Y-110457234D01*
X151890467Y-110457235D01*
X152046227Y-110561310D01*
X152178690Y-110693773D01*
X152221284Y-110757520D01*
X152282766Y-110849534D01*
X152354454Y-111022605D01*
X152391000Y-111206333D01*
X152391000Y-111393667D01*
X152354454Y-111577395D01*
X152282766Y-111750466D01*
X152282765Y-111750467D01*
X152178690Y-111906227D01*
X152046227Y-112038690D01*
X151978692Y-112083815D01*
X151890466Y-112142766D01*
X151717395Y-112214454D01*
X151533667Y-112251000D01*
X151346333Y-112251000D01*
X151162605Y-112214454D01*
X150989534Y-112142766D01*
X150901308Y-112083815D01*
X150833773Y-112038690D01*
X150701310Y-111906227D01*
X150597235Y-111750467D01*
X150597234Y-111750466D01*
X150525546Y-111577395D01*
X150489000Y-111393667D01*
X150489000Y-111206333D01*
X150525546Y-111022605D01*
X150597234Y-110849534D01*
X150658716Y-110757520D01*
X150701310Y-110693773D01*
X150833773Y-110561310D01*
X150989533Y-110457235D01*
X150989534Y-110457234D01*
X151162605Y-110385546D01*
X151346333Y-110349000D01*
X151533667Y-110349000D01*
X151717395Y-110385546D01*
G37*
G36*
X149851000Y-112251000D02*
G01*
X147949000Y-112251000D01*
X147949000Y-110349000D01*
X149851000Y-110349000D01*
X149851000Y-112251000D01*
G37*
G36*
X138932228Y-110481703D02*
G01*
X139087100Y-110545853D01*
X139226481Y-110638985D01*
X139345015Y-110757519D01*
X139438147Y-110896900D01*
X139502297Y-111051772D01*
X139535000Y-111216184D01*
X139535000Y-111383816D01*
X139502297Y-111548228D01*
X139438147Y-111703100D01*
X139345015Y-111842481D01*
X139226481Y-111961015D01*
X139087100Y-112054147D01*
X138932228Y-112118297D01*
X138767816Y-112151000D01*
X138600184Y-112151000D01*
X138435772Y-112118297D01*
X138280900Y-112054147D01*
X138141519Y-111961015D01*
X138022985Y-111842481D01*
X137929853Y-111703100D01*
X137865703Y-111548228D01*
X137833000Y-111383816D01*
X137833000Y-111216184D01*
X137865703Y-111051772D01*
X137929853Y-110896900D01*
X138022985Y-110757519D01*
X138141519Y-110638985D01*
X138280900Y-110545853D01*
X138435772Y-110481703D01*
X138600184Y-110449000D01*
X138767816Y-110449000D01*
X138932228Y-110481703D01*
G37*
G36*
X146552228Y-110481703D02*
G01*
X146707100Y-110545853D01*
X146846481Y-110638985D01*
X146965015Y-110757519D01*
X147058147Y-110896900D01*
X147122297Y-111051772D01*
X147155000Y-111216184D01*
X147155000Y-111383816D01*
X147122297Y-111548228D01*
X147058147Y-111703100D01*
X146965015Y-111842481D01*
X146846481Y-111961015D01*
X146707100Y-112054147D01*
X146552228Y-112118297D01*
X146387816Y-112151000D01*
X146220184Y-112151000D01*
X146055772Y-112118297D01*
X145900900Y-112054147D01*
X145761519Y-111961015D01*
X145642985Y-111842481D01*
X145549853Y-111703100D01*
X145485703Y-111548228D01*
X145453000Y-111383816D01*
X145453000Y-111216184D01*
X145485703Y-111051772D01*
X145549853Y-110896900D01*
X145642985Y-110757519D01*
X145761519Y-110638985D01*
X145900900Y-110545853D01*
X146055772Y-110481703D01*
X146220184Y-110449000D01*
X146387816Y-110449000D01*
X146552228Y-110481703D01*
G37*
G36*
X105785256Y-108881298D02*
G01*
X105891579Y-108902447D01*
X106192042Y-109026903D01*
X106462451Y-109207585D01*
X106692415Y-109437549D01*
X106873097Y-109707958D01*
X106997553Y-110008421D01*
X107061000Y-110327391D01*
X107061000Y-110652609D01*
X106997553Y-110971579D01*
X106873097Y-111272042D01*
X106692415Y-111542451D01*
X106462451Y-111772415D01*
X106192042Y-111953097D01*
X106192041Y-111953098D01*
X106192040Y-111953098D01*
X106104037Y-111989550D01*
X105891579Y-112077553D01*
X105785256Y-112098702D01*
X105572611Y-112141000D01*
X105247389Y-112141000D01*
X105034744Y-112098702D01*
X104928421Y-112077553D01*
X104715963Y-111989550D01*
X104627960Y-111953098D01*
X104627959Y-111953098D01*
X104627958Y-111953097D01*
X104357549Y-111772415D01*
X104127585Y-111542451D01*
X103946903Y-111272042D01*
X103822447Y-110971579D01*
X103759000Y-110652609D01*
X103759000Y-110327391D01*
X103822447Y-110008421D01*
X103946903Y-109707958D01*
X104127585Y-109437549D01*
X104357549Y-109207585D01*
X104627958Y-109026903D01*
X104928421Y-108902447D01*
X105034744Y-108881298D01*
X105247389Y-108839000D01*
X105572611Y-108839000D01*
X105785256Y-108881298D01*
G37*
G36*
X122301000Y-112141000D02*
G01*
X118999000Y-112141000D01*
X118999000Y-108839000D01*
X122301000Y-108839000D01*
X122301000Y-112141000D01*
G37*
G36*
X157405564Y-107574389D02*
G01*
X157596833Y-107653615D01*
X157596835Y-107653616D01*
X157768973Y-107768635D01*
X157915365Y-107915027D01*
X158030385Y-108087167D01*
X158109611Y-108278436D01*
X158150000Y-108481484D01*
X158150000Y-108688516D01*
X158109611Y-108891564D01*
X158105103Y-108902447D01*
X158030384Y-109082835D01*
X157915365Y-109254973D01*
X157768973Y-109401365D01*
X157596835Y-109516384D01*
X157596834Y-109516385D01*
X157596833Y-109516385D01*
X157405564Y-109595611D01*
X157202516Y-109636000D01*
X156995484Y-109636000D01*
X156792436Y-109595611D01*
X156601167Y-109516385D01*
X156601166Y-109516385D01*
X156601165Y-109516384D01*
X156429027Y-109401365D01*
X156282635Y-109254973D01*
X156167616Y-109082835D01*
X156092897Y-108902447D01*
X156088389Y-108891564D01*
X156048000Y-108688516D01*
X156048000Y-108481484D01*
X156088389Y-108278436D01*
X156167615Y-108087167D01*
X156282635Y-107915027D01*
X156429027Y-107768635D01*
X156601165Y-107653616D01*
X156601167Y-107653615D01*
X156792436Y-107574389D01*
X156995484Y-107534000D01*
X157202516Y-107534000D01*
X157405564Y-107574389D01*
G37*
G36*
X155510000Y-109536000D02*
G01*
X153608000Y-109536000D01*
X153608000Y-107634000D01*
X155510000Y-107634000D01*
X155510000Y-109536000D01*
G37*
G36*
X139022585Y-102298802D02*
G01*
X139172410Y-102328604D01*
X139454674Y-102445521D01*
X139708705Y-102615259D01*
X139924741Y-102831295D01*
X140094479Y-103085326D01*
X140211396Y-103367590D01*
X140271000Y-103667240D01*
X140271000Y-103972760D01*
X140211396Y-104272410D01*
X140094479Y-104554674D01*
X139924741Y-104808705D01*
X139708705Y-105024741D01*
X139454674Y-105194479D01*
X139172410Y-105311396D01*
X139022585Y-105341198D01*
X138872761Y-105371000D01*
X138567239Y-105371000D01*
X138417415Y-105341198D01*
X138267590Y-105311396D01*
X137985326Y-105194479D01*
X137731295Y-105024741D01*
X137515259Y-104808705D01*
X137345521Y-104554674D01*
X137228604Y-104272410D01*
X137169000Y-103972760D01*
X137169000Y-103667240D01*
X137228604Y-103367590D01*
X137345521Y-103085326D01*
X137515259Y-102831295D01*
X137731295Y-102615259D01*
X137985326Y-102445521D01*
X138267590Y-102328604D01*
X138417415Y-102298802D01*
X138567239Y-102269000D01*
X138872761Y-102269000D01*
X139022585Y-102298802D01*
G37*
G36*
X144022585Y-102298802D02*
G01*
X144172410Y-102328604D01*
X144454674Y-102445521D01*
X144708705Y-102615259D01*
X144924741Y-102831295D01*
X145094479Y-103085326D01*
X145211396Y-103367590D01*
X145271000Y-103667240D01*
X145271000Y-103972760D01*
X145211396Y-104272410D01*
X145094479Y-104554674D01*
X144924741Y-104808705D01*
X144708705Y-105024741D01*
X144454674Y-105194479D01*
X144172410Y-105311396D01*
X144022585Y-105341198D01*
X143872761Y-105371000D01*
X143567239Y-105371000D01*
X143417415Y-105341198D01*
X143267590Y-105311396D01*
X142985326Y-105194479D01*
X142731295Y-105024741D01*
X142515259Y-104808705D01*
X142345521Y-104554674D01*
X142228604Y-104272410D01*
X142169000Y-103972760D01*
X142169000Y-103667240D01*
X142228604Y-103367590D01*
X142345521Y-103085326D01*
X142515259Y-102831295D01*
X142731295Y-102615259D01*
X142985326Y-102445521D01*
X143267590Y-102328604D01*
X143417415Y-102298802D01*
X143567239Y-102269000D01*
X143872761Y-102269000D01*
X144022585Y-102298802D01*
G37*
G36*
X134022585Y-102298802D02*
G01*
X134172410Y-102328604D01*
X134454674Y-102445521D01*
X134708705Y-102615259D01*
X134924741Y-102831295D01*
X135094479Y-103085326D01*
X135211396Y-103367590D01*
X135271000Y-103667240D01*
X135271000Y-103972760D01*
X135211396Y-104272410D01*
X135094479Y-104554674D01*
X134924741Y-104808705D01*
X134708705Y-105024741D01*
X134454674Y-105194479D01*
X134172410Y-105311396D01*
X134022585Y-105341198D01*
X133872761Y-105371000D01*
X133567239Y-105371000D01*
X133417415Y-105341198D01*
X133267590Y-105311396D01*
X132985326Y-105194479D01*
X132731295Y-105024741D01*
X132515259Y-104808705D01*
X132345521Y-104554674D01*
X132228604Y-104272410D01*
X132169000Y-103972760D01*
X132169000Y-103667240D01*
X132228604Y-103367590D01*
X132345521Y-103085326D01*
X132515259Y-102831295D01*
X132731295Y-102615259D01*
X132985326Y-102445521D01*
X133267590Y-102328604D01*
X133417415Y-102298802D01*
X133567239Y-102269000D01*
X133872761Y-102269000D01*
X134022585Y-102298802D01*
G37*
G36*
X118702585Y-102298802D02*
G01*
X118852410Y-102328604D01*
X119134674Y-102445521D01*
X119388705Y-102615259D01*
X119604741Y-102831295D01*
X119774479Y-103085326D01*
X119891396Y-103367590D01*
X119951000Y-103667240D01*
X119951000Y-103972760D01*
X119891396Y-104272410D01*
X119774479Y-104554674D01*
X119604741Y-104808705D01*
X119388705Y-105024741D01*
X119134674Y-105194479D01*
X118852410Y-105311396D01*
X118702585Y-105341198D01*
X118552761Y-105371000D01*
X118247239Y-105371000D01*
X118097415Y-105341198D01*
X117947590Y-105311396D01*
X117665326Y-105194479D01*
X117411295Y-105024741D01*
X117195259Y-104808705D01*
X117025521Y-104554674D01*
X116908604Y-104272410D01*
X116849000Y-103972760D01*
X116849000Y-103667240D01*
X116908604Y-103367590D01*
X117025521Y-103085326D01*
X117195259Y-102831295D01*
X117411295Y-102615259D01*
X117665326Y-102445521D01*
X117947590Y-102328604D01*
X118097415Y-102298802D01*
X118247239Y-102269000D01*
X118552761Y-102269000D01*
X118702585Y-102298802D01*
G37*
G36*
X153302585Y-102298802D02*
G01*
X153452410Y-102328604D01*
X153734674Y-102445521D01*
X153988705Y-102615259D01*
X154204741Y-102831295D01*
X154374479Y-103085326D01*
X154491396Y-103367590D01*
X154551000Y-103667240D01*
X154551000Y-103972760D01*
X154491396Y-104272410D01*
X154374479Y-104554674D01*
X154204741Y-104808705D01*
X153988705Y-105024741D01*
X153734674Y-105194479D01*
X153452410Y-105311396D01*
X153302585Y-105341198D01*
X153152761Y-105371000D01*
X152847239Y-105371000D01*
X152697415Y-105341198D01*
X152547590Y-105311396D01*
X152265326Y-105194479D01*
X152011295Y-105024741D01*
X151795259Y-104808705D01*
X151625521Y-104554674D01*
X151508604Y-104272410D01*
X151449000Y-103972760D01*
X151449000Y-103667240D01*
X151508604Y-103367590D01*
X151625521Y-103085326D01*
X151795259Y-102831295D01*
X152011295Y-102615259D01*
X152265326Y-102445521D01*
X152547590Y-102328604D01*
X152697415Y-102298802D01*
X152847239Y-102269000D01*
X153152761Y-102269000D01*
X153302585Y-102298802D01*
G37*
G36*
X178622585Y-102298802D02*
G01*
X178772410Y-102328604D01*
X179054674Y-102445521D01*
X179308705Y-102615259D01*
X179524741Y-102831295D01*
X179694479Y-103085326D01*
X179811396Y-103367590D01*
X179871000Y-103667240D01*
X179871000Y-103972760D01*
X179811396Y-104272410D01*
X179694479Y-104554674D01*
X179524741Y-104808705D01*
X179308705Y-105024741D01*
X179054674Y-105194479D01*
X178772410Y-105311396D01*
X178622585Y-105341198D01*
X178472761Y-105371000D01*
X178167239Y-105371000D01*
X178017415Y-105341198D01*
X177867590Y-105311396D01*
X177585326Y-105194479D01*
X177331295Y-105024741D01*
X177115259Y-104808705D01*
X176945521Y-104554674D01*
X176828604Y-104272410D01*
X176769000Y-103972760D01*
X176769000Y-103667240D01*
X176828604Y-103367590D01*
X176945521Y-103085326D01*
X177115259Y-102831295D01*
X177331295Y-102615259D01*
X177585326Y-102445521D01*
X177867590Y-102328604D01*
X178017415Y-102298802D01*
X178167239Y-102269000D01*
X178472761Y-102269000D01*
X178622585Y-102298802D01*
G37*
G36*
X168622585Y-102298802D02*
G01*
X168772410Y-102328604D01*
X169054674Y-102445521D01*
X169308705Y-102615259D01*
X169524741Y-102831295D01*
X169694479Y-103085326D01*
X169811396Y-103367590D01*
X169871000Y-103667240D01*
X169871000Y-103972760D01*
X169811396Y-104272410D01*
X169694479Y-104554674D01*
X169524741Y-104808705D01*
X169308705Y-105024741D01*
X169054674Y-105194479D01*
X168772410Y-105311396D01*
X168622585Y-105341198D01*
X168472761Y-105371000D01*
X168167239Y-105371000D01*
X168017415Y-105341198D01*
X167867590Y-105311396D01*
X167585326Y-105194479D01*
X167331295Y-105024741D01*
X167115259Y-104808705D01*
X166945521Y-104554674D01*
X166828604Y-104272410D01*
X166769000Y-103972760D01*
X166769000Y-103667240D01*
X166828604Y-103367590D01*
X166945521Y-103085326D01*
X167115259Y-102831295D01*
X167331295Y-102615259D01*
X167585326Y-102445521D01*
X167867590Y-102328604D01*
X168017415Y-102298802D01*
X168167239Y-102269000D01*
X168472761Y-102269000D01*
X168622585Y-102298802D01*
G37*
G36*
X173622585Y-102298802D02*
G01*
X173772410Y-102328604D01*
X174054674Y-102445521D01*
X174308705Y-102615259D01*
X174524741Y-102831295D01*
X174694479Y-103085326D01*
X174811396Y-103367590D01*
X174871000Y-103667240D01*
X174871000Y-103972760D01*
X174811396Y-104272410D01*
X174694479Y-104554674D01*
X174524741Y-104808705D01*
X174308705Y-105024741D01*
X174054674Y-105194479D01*
X173772410Y-105311396D01*
X173622585Y-105341198D01*
X173472761Y-105371000D01*
X173167239Y-105371000D01*
X173017415Y-105341198D01*
X172867590Y-105311396D01*
X172585326Y-105194479D01*
X172331295Y-105024741D01*
X172115259Y-104808705D01*
X171945521Y-104554674D01*
X171828604Y-104272410D01*
X171769000Y-103972760D01*
X171769000Y-103667240D01*
X171828604Y-103367590D01*
X171945521Y-103085326D01*
X172115259Y-102831295D01*
X172331295Y-102615259D01*
X172585326Y-102445521D01*
X172867590Y-102328604D01*
X173017415Y-102298802D01*
X173167239Y-102269000D01*
X173472761Y-102269000D01*
X173622585Y-102298802D01*
G37*
G36*
X191751000Y-104671000D02*
G01*
X190049000Y-104671000D01*
X190049000Y-102969000D01*
X191751000Y-102969000D01*
X191751000Y-104671000D01*
G37*
G36*
X148748228Y-103001703D02*
G01*
X148903100Y-103065853D01*
X149042481Y-103158985D01*
X149161015Y-103277519D01*
X149254147Y-103416900D01*
X149318297Y-103571772D01*
X149351000Y-103736184D01*
X149351000Y-103903816D01*
X149318297Y-104068228D01*
X149254147Y-104223100D01*
X149161015Y-104362481D01*
X149042481Y-104481015D01*
X148903100Y-104574147D01*
X148748228Y-104638297D01*
X148583816Y-104671000D01*
X148416184Y-104671000D01*
X148251772Y-104638297D01*
X148096900Y-104574147D01*
X147957519Y-104481015D01*
X147838985Y-104362481D01*
X147745853Y-104223100D01*
X147681703Y-104068228D01*
X147649000Y-103903816D01*
X147649000Y-103736184D01*
X147681703Y-103571772D01*
X147745853Y-103416900D01*
X147838985Y-103277519D01*
X147957519Y-103158985D01*
X148096900Y-103065853D01*
X148251772Y-103001703D01*
X148416184Y-102969000D01*
X148583816Y-102969000D01*
X148748228Y-103001703D01*
G37*
G36*
X114751000Y-104671000D02*
G01*
X113049000Y-104671000D01*
X113049000Y-102969000D01*
X114751000Y-102969000D01*
X114751000Y-104671000D01*
G37*
G36*
X186938228Y-101781703D02*
G01*
X187093100Y-101845853D01*
X187232481Y-101938985D01*
X187351015Y-102057519D01*
X187444147Y-102196900D01*
X187508297Y-102351772D01*
X187541000Y-102516184D01*
X187541000Y-102683816D01*
X187508297Y-102848228D01*
X187444147Y-103003100D01*
X187351015Y-103142481D01*
X187232481Y-103261015D01*
X187093100Y-103354147D01*
X186938228Y-103418297D01*
X186773816Y-103451000D01*
X186606184Y-103451000D01*
X186441772Y-103418297D01*
X186286900Y-103354147D01*
X186147519Y-103261015D01*
X186028985Y-103142481D01*
X185935853Y-103003100D01*
X185871703Y-102848228D01*
X185839000Y-102683816D01*
X185839000Y-102516184D01*
X185871703Y-102351772D01*
X185935853Y-102196900D01*
X186028985Y-102057519D01*
X186147519Y-101938985D01*
X186286900Y-101845853D01*
X186441772Y-101781703D01*
X186606184Y-101749000D01*
X186773816Y-101749000D01*
X186938228Y-101781703D01*
G37*
G36*
X109273615Y-101326290D02*
G01*
X109375624Y-101346581D01*
X109567804Y-101426185D01*
X109740761Y-101541751D01*
X109887849Y-101688839D01*
X110003415Y-101861796D01*
X110083019Y-102053976D01*
X110123600Y-102257993D01*
X110123600Y-102466007D01*
X110083019Y-102670024D01*
X110003415Y-102862204D01*
X109887849Y-103035161D01*
X109740761Y-103182249D01*
X109567804Y-103297815D01*
X109375624Y-103377419D01*
X109273615Y-103397710D01*
X109171608Y-103418000D01*
X108963592Y-103418000D01*
X108861585Y-103397710D01*
X108759576Y-103377419D01*
X108567396Y-103297815D01*
X108394439Y-103182249D01*
X108247351Y-103035161D01*
X108131785Y-102862204D01*
X108052181Y-102670024D01*
X108011600Y-102466007D01*
X108011600Y-102257993D01*
X108052181Y-102053976D01*
X108131785Y-101861796D01*
X108247351Y-101688839D01*
X108394439Y-101541751D01*
X108567396Y-101426185D01*
X108759576Y-101346581D01*
X108861585Y-101326290D01*
X108963592Y-101306000D01*
X109171608Y-101306000D01*
X109273615Y-101326290D01*
G37*
G36*
X106086425Y-100972760D02*
G01*
X106086428Y-100972761D01*
X106086429Y-100972761D01*
X106265693Y-101027140D01*
X106265696Y-101027142D01*
X106265697Y-101027142D01*
X106430903Y-101115446D01*
X106575712Y-101234288D01*
X106694554Y-101379097D01*
X106719723Y-101426186D01*
X106782860Y-101544307D01*
X106826703Y-101688839D01*
X106837240Y-101723575D01*
X106855601Y-101910000D01*
X106837240Y-102096425D01*
X106837239Y-102096428D01*
X106837239Y-102096429D01*
X106782860Y-102275693D01*
X106782858Y-102275696D01*
X106782858Y-102275697D01*
X106694554Y-102440903D01*
X106575712Y-102585712D01*
X106430903Y-102704554D01*
X106265697Y-102792858D01*
X106265693Y-102792860D01*
X106086429Y-102847239D01*
X106086428Y-102847239D01*
X106086425Y-102847240D01*
X105946718Y-102861000D01*
X104053282Y-102861000D01*
X103913575Y-102847240D01*
X103913572Y-102847239D01*
X103913571Y-102847239D01*
X103734307Y-102792860D01*
X103734303Y-102792858D01*
X103569097Y-102704554D01*
X103424288Y-102585712D01*
X103305446Y-102440903D01*
X103217142Y-102275697D01*
X103217142Y-102275696D01*
X103217140Y-102275693D01*
X103162761Y-102096429D01*
X103162761Y-102096428D01*
X103162760Y-102096425D01*
X103144399Y-101910000D01*
X103162760Y-101723575D01*
X103173297Y-101688839D01*
X103217140Y-101544307D01*
X103280277Y-101426186D01*
X103305446Y-101379097D01*
X103424288Y-101234288D01*
X103569097Y-101115446D01*
X103734303Y-101027142D01*
X103734304Y-101027142D01*
X103734307Y-101027140D01*
X103913571Y-100972761D01*
X103913572Y-100972761D01*
X103913575Y-100972760D01*
X104053282Y-100959000D01*
X105946718Y-100959000D01*
X106086425Y-100972760D01*
G37*
G36*
X197351000Y-102851000D02*
G01*
X193649000Y-102851000D01*
X193649000Y-100949000D01*
X197351000Y-100949000D01*
X197351000Y-102851000D01*
G37*
G36*
X106851000Y-99051000D02*
G01*
X103149000Y-99051000D01*
X103149000Y-97149000D01*
X106851000Y-97149000D01*
X106851000Y-99051000D01*
G37*
G36*
X196586425Y-97152760D02*
G01*
X196586428Y-97152761D01*
X196586429Y-97152761D01*
X196765693Y-97207140D01*
X196765696Y-97207142D01*
X196765697Y-97207142D01*
X196930903Y-97295446D01*
X197075712Y-97414288D01*
X197194554Y-97559097D01*
X197261217Y-97683816D01*
X197282860Y-97724307D01*
X197294356Y-97762205D01*
X197337240Y-97903575D01*
X197355601Y-98090000D01*
X197337240Y-98276425D01*
X197337239Y-98276428D01*
X197337239Y-98276429D01*
X197282860Y-98455693D01*
X197282858Y-98455696D01*
X197282858Y-98455697D01*
X197194554Y-98620903D01*
X197075712Y-98765712D01*
X196930903Y-98884554D01*
X196765697Y-98972858D01*
X196765693Y-98972860D01*
X196586429Y-99027239D01*
X196586428Y-99027239D01*
X196586425Y-99027240D01*
X196446718Y-99041000D01*
X194553282Y-99041000D01*
X194413575Y-99027240D01*
X194413572Y-99027239D01*
X194413571Y-99027239D01*
X194234307Y-98972860D01*
X194234303Y-98972858D01*
X194069097Y-98884554D01*
X193924288Y-98765712D01*
X193805446Y-98620903D01*
X193717142Y-98455697D01*
X193717142Y-98455696D01*
X193717140Y-98455693D01*
X193662761Y-98276429D01*
X193662761Y-98276428D01*
X193662760Y-98276425D01*
X193644399Y-98090000D01*
X193662760Y-97903575D01*
X193705644Y-97762205D01*
X193717140Y-97724307D01*
X193738783Y-97683816D01*
X193805446Y-97559097D01*
X193924288Y-97414288D01*
X194069097Y-97295446D01*
X194234303Y-97207142D01*
X194234304Y-97207142D01*
X194234307Y-97207140D01*
X194413571Y-97152761D01*
X194413572Y-97152761D01*
X194413575Y-97152760D01*
X194553282Y-97139000D01*
X196446718Y-97139000D01*
X196586425Y-97152760D01*
G37*
G36*
X186938228Y-96781703D02*
G01*
X187093100Y-96845853D01*
X187232481Y-96938985D01*
X187351015Y-97057519D01*
X187444147Y-97196900D01*
X187508297Y-97351772D01*
X187541000Y-97516184D01*
X187541000Y-97683816D01*
X187508297Y-97848228D01*
X187444147Y-98003100D01*
X187351015Y-98142481D01*
X187232481Y-98261015D01*
X187093100Y-98354147D01*
X186938228Y-98418297D01*
X186773816Y-98451000D01*
X186606184Y-98451000D01*
X186441772Y-98418297D01*
X186286900Y-98354147D01*
X186147519Y-98261015D01*
X186028985Y-98142481D01*
X185935853Y-98003100D01*
X185871703Y-97848228D01*
X185839000Y-97683816D01*
X185839000Y-97516184D01*
X185871703Y-97351772D01*
X185935853Y-97196900D01*
X186028985Y-97057519D01*
X186147519Y-96938985D01*
X186286900Y-96845853D01*
X186441772Y-96781703D01*
X186606184Y-96749000D01*
X186773816Y-96749000D01*
X186938228Y-96781703D01*
G37*
G36*
X111073616Y-96226291D02*
G01*
X111175624Y-96246581D01*
X111367804Y-96326185D01*
X111540761Y-96441751D01*
X111687849Y-96588839D01*
X111803415Y-96761796D01*
X111876809Y-96938985D01*
X111883019Y-96953977D01*
X111923600Y-97157992D01*
X111923600Y-97366008D01*
X111903310Y-97468015D01*
X111883019Y-97570024D01*
X111803415Y-97762204D01*
X111687849Y-97935161D01*
X111540761Y-98082249D01*
X111367804Y-98197815D01*
X111175624Y-98277419D01*
X111073615Y-98297710D01*
X110971608Y-98318000D01*
X110763592Y-98318000D01*
X110661585Y-98297710D01*
X110559576Y-98277419D01*
X110367396Y-98197815D01*
X110194439Y-98082249D01*
X110047351Y-97935161D01*
X109931785Y-97762204D01*
X109852181Y-97570024D01*
X109831890Y-97468015D01*
X109811600Y-97366008D01*
X109811600Y-97157992D01*
X109852181Y-96953977D01*
X109858391Y-96938985D01*
X109931785Y-96761796D01*
X110047351Y-96588839D01*
X110194439Y-96441751D01*
X110367396Y-96326185D01*
X110559576Y-96246581D01*
X110661585Y-96226290D01*
X110763592Y-96206000D01*
X110971608Y-96206000D01*
X111073616Y-96226291D01*
G37*
G36*
X178622585Y-94678802D02*
G01*
X178772410Y-94708604D01*
X179054674Y-94825521D01*
X179308705Y-94995259D01*
X179524741Y-95211295D01*
X179694479Y-95465326D01*
X179811396Y-95747590D01*
X179871000Y-96047240D01*
X179871000Y-96352760D01*
X179811396Y-96652410D01*
X179694479Y-96934674D01*
X179524741Y-97188705D01*
X179308705Y-97404741D01*
X179054674Y-97574479D01*
X178772410Y-97691396D01*
X178622585Y-97721198D01*
X178472761Y-97751000D01*
X178167239Y-97751000D01*
X178017415Y-97721198D01*
X177867590Y-97691396D01*
X177585326Y-97574479D01*
X177331295Y-97404741D01*
X177115259Y-97188705D01*
X176945521Y-96934674D01*
X176828604Y-96652410D01*
X176769000Y-96352760D01*
X176769000Y-96047240D01*
X176828604Y-95747590D01*
X176945521Y-95465326D01*
X177115259Y-95211295D01*
X177331295Y-94995259D01*
X177585326Y-94825521D01*
X177867590Y-94708604D01*
X178017415Y-94678802D01*
X178167239Y-94649000D01*
X178472761Y-94649000D01*
X178622585Y-94678802D01*
G37*
G36*
X168622585Y-94678802D02*
G01*
X168772410Y-94708604D01*
X169054674Y-94825521D01*
X169308705Y-94995259D01*
X169524741Y-95211295D01*
X169694479Y-95465326D01*
X169811396Y-95747590D01*
X169871000Y-96047240D01*
X169871000Y-96352760D01*
X169811396Y-96652410D01*
X169694479Y-96934674D01*
X169524741Y-97188705D01*
X169308705Y-97404741D01*
X169054674Y-97574479D01*
X168772410Y-97691396D01*
X168622585Y-97721198D01*
X168472761Y-97751000D01*
X168167239Y-97751000D01*
X168017415Y-97721198D01*
X167867590Y-97691396D01*
X167585326Y-97574479D01*
X167331295Y-97404741D01*
X167115259Y-97188705D01*
X166945521Y-96934674D01*
X166828604Y-96652410D01*
X166769000Y-96352760D01*
X166769000Y-96047240D01*
X166828604Y-95747590D01*
X166945521Y-95465326D01*
X167115259Y-95211295D01*
X167331295Y-94995259D01*
X167585326Y-94825521D01*
X167867590Y-94708604D01*
X168017415Y-94678802D01*
X168167239Y-94649000D01*
X168472761Y-94649000D01*
X168622585Y-94678802D01*
G37*
G36*
X173622585Y-94678802D02*
G01*
X173772410Y-94708604D01*
X174054674Y-94825521D01*
X174308705Y-94995259D01*
X174524741Y-95211295D01*
X174694479Y-95465326D01*
X174811396Y-95747590D01*
X174871000Y-96047240D01*
X174871000Y-96352760D01*
X174811396Y-96652410D01*
X174694479Y-96934674D01*
X174524741Y-97188705D01*
X174308705Y-97404741D01*
X174054674Y-97574479D01*
X173772410Y-97691396D01*
X173622585Y-97721198D01*
X173472761Y-97751000D01*
X173167239Y-97751000D01*
X173017415Y-97721198D01*
X172867590Y-97691396D01*
X172585326Y-97574479D01*
X172331295Y-97404741D01*
X172115259Y-97188705D01*
X171945521Y-96934674D01*
X171828604Y-96652410D01*
X171769000Y-96352760D01*
X171769000Y-96047240D01*
X171828604Y-95747590D01*
X171945521Y-95465326D01*
X172115259Y-95211295D01*
X172331295Y-94995259D01*
X172585326Y-94825521D01*
X172867590Y-94708604D01*
X173017415Y-94678802D01*
X173167239Y-94649000D01*
X173472761Y-94649000D01*
X173622585Y-94678802D01*
G37*
G36*
X153302585Y-94678802D02*
G01*
X153452410Y-94708604D01*
X153734674Y-94825521D01*
X153988705Y-94995259D01*
X154204741Y-95211295D01*
X154374479Y-95465326D01*
X154491396Y-95747590D01*
X154551000Y-96047240D01*
X154551000Y-96352760D01*
X154491396Y-96652410D01*
X154374479Y-96934674D01*
X154204741Y-97188705D01*
X153988705Y-97404741D01*
X153734674Y-97574479D01*
X153452410Y-97691396D01*
X153302585Y-97721198D01*
X153152761Y-97751000D01*
X152847239Y-97751000D01*
X152697415Y-97721198D01*
X152547590Y-97691396D01*
X152265326Y-97574479D01*
X152011295Y-97404741D01*
X151795259Y-97188705D01*
X151625521Y-96934674D01*
X151508604Y-96652410D01*
X151449000Y-96352760D01*
X151449000Y-96047240D01*
X151508604Y-95747590D01*
X151625521Y-95465326D01*
X151795259Y-95211295D01*
X152011295Y-94995259D01*
X152265326Y-94825521D01*
X152547590Y-94708604D01*
X152697415Y-94678802D01*
X152847239Y-94649000D01*
X153152761Y-94649000D01*
X153302585Y-94678802D01*
G37*
G36*
X144022585Y-94678802D02*
G01*
X144172410Y-94708604D01*
X144454674Y-94825521D01*
X144708705Y-94995259D01*
X144924741Y-95211295D01*
X145094479Y-95465326D01*
X145211396Y-95747590D01*
X145271000Y-96047240D01*
X145271000Y-96352760D01*
X145211396Y-96652410D01*
X145094479Y-96934674D01*
X144924741Y-97188705D01*
X144708705Y-97404741D01*
X144454674Y-97574479D01*
X144172410Y-97691396D01*
X144022585Y-97721198D01*
X143872761Y-97751000D01*
X143567239Y-97751000D01*
X143417415Y-97721198D01*
X143267590Y-97691396D01*
X142985326Y-97574479D01*
X142731295Y-97404741D01*
X142515259Y-97188705D01*
X142345521Y-96934674D01*
X142228604Y-96652410D01*
X142169000Y-96352760D01*
X142169000Y-96047240D01*
X142228604Y-95747590D01*
X142345521Y-95465326D01*
X142515259Y-95211295D01*
X142731295Y-94995259D01*
X142985326Y-94825521D01*
X143267590Y-94708604D01*
X143417415Y-94678802D01*
X143567239Y-94649000D01*
X143872761Y-94649000D01*
X144022585Y-94678802D01*
G37*
G36*
X139022585Y-94678802D02*
G01*
X139172410Y-94708604D01*
X139454674Y-94825521D01*
X139708705Y-94995259D01*
X139924741Y-95211295D01*
X140094479Y-95465326D01*
X140211396Y-95747590D01*
X140271000Y-96047240D01*
X140271000Y-96352760D01*
X140211396Y-96652410D01*
X140094479Y-96934674D01*
X139924741Y-97188705D01*
X139708705Y-97404741D01*
X139454674Y-97574479D01*
X139172410Y-97691396D01*
X139022585Y-97721198D01*
X138872761Y-97751000D01*
X138567239Y-97751000D01*
X138417415Y-97721198D01*
X138267590Y-97691396D01*
X137985326Y-97574479D01*
X137731295Y-97404741D01*
X137515259Y-97188705D01*
X137345521Y-96934674D01*
X137228604Y-96652410D01*
X137169000Y-96352760D01*
X137169000Y-96047240D01*
X137228604Y-95747590D01*
X137345521Y-95465326D01*
X137515259Y-95211295D01*
X137731295Y-94995259D01*
X137985326Y-94825521D01*
X138267590Y-94708604D01*
X138417415Y-94678802D01*
X138567239Y-94649000D01*
X138872761Y-94649000D01*
X139022585Y-94678802D01*
G37*
G36*
X134022585Y-94678802D02*
G01*
X134172410Y-94708604D01*
X134454674Y-94825521D01*
X134708705Y-94995259D01*
X134924741Y-95211295D01*
X135094479Y-95465326D01*
X135211396Y-95747590D01*
X135271000Y-96047240D01*
X135271000Y-96352760D01*
X135211396Y-96652410D01*
X135094479Y-96934674D01*
X134924741Y-97188705D01*
X134708705Y-97404741D01*
X134454674Y-97574479D01*
X134172410Y-97691396D01*
X134022585Y-97721198D01*
X133872761Y-97751000D01*
X133567239Y-97751000D01*
X133417415Y-97721198D01*
X133267590Y-97691396D01*
X132985326Y-97574479D01*
X132731295Y-97404741D01*
X132515259Y-97188705D01*
X132345521Y-96934674D01*
X132228604Y-96652410D01*
X132169000Y-96352760D01*
X132169000Y-96047240D01*
X132228604Y-95747590D01*
X132345521Y-95465326D01*
X132515259Y-95211295D01*
X132731295Y-94995259D01*
X132985326Y-94825521D01*
X133267590Y-94708604D01*
X133417415Y-94678802D01*
X133567239Y-94649000D01*
X133872761Y-94649000D01*
X134022585Y-94678802D01*
G37*
G36*
X118702585Y-94678802D02*
G01*
X118852410Y-94708604D01*
X119134674Y-94825521D01*
X119388705Y-94995259D01*
X119604741Y-95211295D01*
X119774479Y-95465326D01*
X119891396Y-95747590D01*
X119951000Y-96047240D01*
X119951000Y-96352760D01*
X119891396Y-96652410D01*
X119774479Y-96934674D01*
X119604741Y-97188705D01*
X119388705Y-97404741D01*
X119134674Y-97574479D01*
X118852410Y-97691396D01*
X118702585Y-97721198D01*
X118552761Y-97751000D01*
X118247239Y-97751000D01*
X118097415Y-97721198D01*
X117947590Y-97691396D01*
X117665326Y-97574479D01*
X117411295Y-97404741D01*
X117195259Y-97188705D01*
X117025521Y-96934674D01*
X116908604Y-96652410D01*
X116849000Y-96352760D01*
X116849000Y-96047240D01*
X116908604Y-95747590D01*
X117025521Y-95465326D01*
X117195259Y-95211295D01*
X117411295Y-94995259D01*
X117665326Y-94825521D01*
X117947590Y-94708604D01*
X118097415Y-94678802D01*
X118247239Y-94649000D01*
X118552761Y-94649000D01*
X118702585Y-94678802D01*
G37*
G36*
X149351000Y-97051000D02*
G01*
X147649000Y-97051000D01*
X147649000Y-95349000D01*
X149351000Y-95349000D01*
X149351000Y-97051000D01*
G37*
G36*
X114148228Y-95381703D02*
G01*
X114303100Y-95445853D01*
X114442481Y-95538985D01*
X114561015Y-95657519D01*
X114654147Y-95796900D01*
X114718297Y-95951772D01*
X114751000Y-96116184D01*
X114751000Y-96283816D01*
X114718297Y-96448228D01*
X114654147Y-96603100D01*
X114561015Y-96742481D01*
X114442481Y-96861015D01*
X114303100Y-96954147D01*
X114148228Y-97018297D01*
X113983816Y-97051000D01*
X113816184Y-97051000D01*
X113651772Y-97018297D01*
X113496900Y-96954147D01*
X113357519Y-96861015D01*
X113238985Y-96742481D01*
X113145853Y-96603100D01*
X113081703Y-96448228D01*
X113049000Y-96283816D01*
X113049000Y-96116184D01*
X113081703Y-95951772D01*
X113145853Y-95796900D01*
X113238985Y-95657519D01*
X113357519Y-95538985D01*
X113496900Y-95445853D01*
X113651772Y-95381703D01*
X113816184Y-95349000D01*
X113983816Y-95349000D01*
X114148228Y-95381703D01*
G37*
G36*
X191148228Y-95361703D02*
G01*
X191303100Y-95425853D01*
X191442481Y-95518985D01*
X191561015Y-95637519D01*
X191654147Y-95776900D01*
X191718297Y-95931772D01*
X191751000Y-96096184D01*
X191751000Y-96263816D01*
X191718297Y-96428228D01*
X191654147Y-96583100D01*
X191561015Y-96722481D01*
X191442481Y-96841015D01*
X191303100Y-96934147D01*
X191148228Y-96998297D01*
X190983816Y-97031000D01*
X190816184Y-97031000D01*
X190651772Y-96998297D01*
X190496900Y-96934147D01*
X190357519Y-96841015D01*
X190238985Y-96722481D01*
X190145853Y-96583100D01*
X190081703Y-96428228D01*
X190049000Y-96263816D01*
X190049000Y-96096184D01*
X190081703Y-95931772D01*
X190145853Y-95776900D01*
X190238985Y-95637519D01*
X190357519Y-95518985D01*
X190496900Y-95425853D01*
X190651772Y-95361703D01*
X190816184Y-95329000D01*
X190983816Y-95329000D01*
X191148228Y-95361703D01*
G37*
G36*
X177248228Y-90401703D02*
G01*
X177403100Y-90465853D01*
X177542481Y-90558985D01*
X177661015Y-90677519D01*
X177754147Y-90816900D01*
X177818297Y-90971772D01*
X177851000Y-91136184D01*
X177851000Y-91303816D01*
X177818297Y-91468228D01*
X177754147Y-91623100D01*
X177661015Y-91762481D01*
X177542481Y-91881015D01*
X177403100Y-91974147D01*
X177248228Y-92038297D01*
X177083816Y-92071000D01*
X176916184Y-92071000D01*
X176751772Y-92038297D01*
X176596900Y-91974147D01*
X176457519Y-91881015D01*
X176338985Y-91762481D01*
X176245853Y-91623100D01*
X176181703Y-91468228D01*
X176149000Y-91303816D01*
X176149000Y-91136184D01*
X176181703Y-90971772D01*
X176245853Y-90816900D01*
X176338985Y-90677519D01*
X176457519Y-90558985D01*
X176596900Y-90465853D01*
X176751772Y-90401703D01*
X176916184Y-90369000D01*
X177083816Y-90369000D01*
X177248228Y-90401703D01*
G37*
G36*
X173748228Y-90401703D02*
G01*
X173903100Y-90465853D01*
X174042481Y-90558985D01*
X174161015Y-90677519D01*
X174254147Y-90816900D01*
X174318297Y-90971772D01*
X174351000Y-91136184D01*
X174351000Y-91303816D01*
X174318297Y-91468228D01*
X174254147Y-91623100D01*
X174161015Y-91762481D01*
X174042481Y-91881015D01*
X173903100Y-91974147D01*
X173748228Y-92038297D01*
X173583816Y-92071000D01*
X173416184Y-92071000D01*
X173251772Y-92038297D01*
X173096900Y-91974147D01*
X172957519Y-91881015D01*
X172838985Y-91762481D01*
X172745853Y-91623100D01*
X172681703Y-91468228D01*
X172649000Y-91303816D01*
X172649000Y-91136184D01*
X172681703Y-90971772D01*
X172745853Y-90816900D01*
X172838985Y-90677519D01*
X172957519Y-90558985D01*
X173096900Y-90465853D01*
X173251772Y-90401703D01*
X173416184Y-90369000D01*
X173583816Y-90369000D01*
X173748228Y-90401703D01*
G37*
G36*
X169668228Y-89181703D02*
G01*
X169823100Y-89245853D01*
X169962481Y-89338985D01*
X170081015Y-89457519D01*
X170174147Y-89596900D01*
X170238297Y-89751772D01*
X170271000Y-89916184D01*
X170271000Y-90083816D01*
X170238297Y-90248228D01*
X170174147Y-90403100D01*
X170081015Y-90542481D01*
X169962481Y-90661015D01*
X169823100Y-90754147D01*
X169668228Y-90818297D01*
X169503816Y-90851000D01*
X169336184Y-90851000D01*
X169171772Y-90818297D01*
X169016900Y-90754147D01*
X168877519Y-90661015D01*
X168758985Y-90542481D01*
X168665853Y-90403100D01*
X168601703Y-90248228D01*
X168569000Y-90083816D01*
X168569000Y-89916184D01*
X168601703Y-89751772D01*
X168665853Y-89596900D01*
X168758985Y-89457519D01*
X168877519Y-89338985D01*
X169016900Y-89245853D01*
X169171772Y-89181703D01*
X169336184Y-89149000D01*
X169503816Y-89149000D01*
X169668228Y-89181703D01*
G37*
G36*
X162048228Y-89181703D02*
G01*
X162203100Y-89245853D01*
X162342481Y-89338985D01*
X162461015Y-89457519D01*
X162554147Y-89596900D01*
X162618297Y-89751772D01*
X162651000Y-89916184D01*
X162651000Y-90083816D01*
X162618297Y-90248228D01*
X162554147Y-90403100D01*
X162461015Y-90542481D01*
X162342481Y-90661015D01*
X162203100Y-90754147D01*
X162048228Y-90818297D01*
X161883816Y-90851000D01*
X161716184Y-90851000D01*
X161551772Y-90818297D01*
X161396900Y-90754147D01*
X161257519Y-90661015D01*
X161138985Y-90542481D01*
X161045853Y-90403100D01*
X160981703Y-90248228D01*
X160949000Y-90083816D01*
X160949000Y-89916184D01*
X160981703Y-89751772D01*
X161045853Y-89596900D01*
X161138985Y-89457519D01*
X161257519Y-89338985D01*
X161396900Y-89245853D01*
X161551772Y-89181703D01*
X161716184Y-89149000D01*
X161883816Y-89149000D01*
X162048228Y-89181703D01*
G37*
G36*
X121176560Y-89220166D02*
G01*
X121324153Y-89281301D01*
X121410483Y-89338985D01*
X121456982Y-89370055D01*
X121569945Y-89483018D01*
X121658700Y-89615849D01*
X121719834Y-89763440D01*
X121751000Y-89920122D01*
X121751000Y-90079878D01*
X121719834Y-90236560D01*
X121672432Y-90351000D01*
X121658699Y-90384153D01*
X121569945Y-90516982D01*
X121456982Y-90629945D01*
X121324153Y-90718699D01*
X121324152Y-90718700D01*
X121324151Y-90718700D01*
X121176560Y-90779834D01*
X121019878Y-90811000D01*
X120860122Y-90811000D01*
X120703440Y-90779834D01*
X120555849Y-90718700D01*
X120555848Y-90718700D01*
X120555847Y-90718699D01*
X120423018Y-90629945D01*
X120310055Y-90516982D01*
X120221301Y-90384153D01*
X120207569Y-90351000D01*
X120160166Y-90236560D01*
X120129000Y-90079878D01*
X120129000Y-89920122D01*
X120160166Y-89763440D01*
X120221300Y-89615849D01*
X120310055Y-89483018D01*
X120423018Y-89370055D01*
X120469517Y-89338985D01*
X120555847Y-89281301D01*
X120703440Y-89220166D01*
X120860122Y-89189000D01*
X121019878Y-89189000D01*
X121176560Y-89220166D01*
G37*
G36*
X123716560Y-89220166D02*
G01*
X123864153Y-89281301D01*
X123950483Y-89338985D01*
X123996982Y-89370055D01*
X124109945Y-89483018D01*
X124198700Y-89615849D01*
X124259834Y-89763440D01*
X124291000Y-89920122D01*
X124291000Y-90079878D01*
X124259834Y-90236560D01*
X124212432Y-90351000D01*
X124198699Y-90384153D01*
X124109945Y-90516982D01*
X123996982Y-90629945D01*
X123864153Y-90718699D01*
X123864152Y-90718700D01*
X123864151Y-90718700D01*
X123716560Y-90779834D01*
X123559878Y-90811000D01*
X123400122Y-90811000D01*
X123243440Y-90779834D01*
X123095849Y-90718700D01*
X123095848Y-90718700D01*
X123095847Y-90718699D01*
X122963018Y-90629945D01*
X122850055Y-90516982D01*
X122761301Y-90384153D01*
X122747569Y-90351000D01*
X122700166Y-90236560D01*
X122669000Y-90079878D01*
X122669000Y-89920122D01*
X122700166Y-89763440D01*
X122761300Y-89615849D01*
X122850055Y-89483018D01*
X122963018Y-89370055D01*
X123009517Y-89338985D01*
X123095847Y-89281301D01*
X123243440Y-89220166D01*
X123400122Y-89189000D01*
X123559878Y-89189000D01*
X123716560Y-89220166D01*
G37*
G36*
X119211000Y-90811000D02*
G01*
X117589000Y-90811000D01*
X117589000Y-89189000D01*
X119211000Y-89189000D01*
X119211000Y-90811000D01*
G37*
G36*
X155776560Y-89220166D02*
G01*
X155924153Y-89281301D01*
X156010483Y-89338985D01*
X156056982Y-89370055D01*
X156169945Y-89483018D01*
X156258700Y-89615849D01*
X156319834Y-89763440D01*
X156351000Y-89920122D01*
X156351000Y-90079878D01*
X156319834Y-90236560D01*
X156272432Y-90351000D01*
X156258699Y-90384153D01*
X156169945Y-90516982D01*
X156056982Y-90629945D01*
X155924153Y-90718699D01*
X155924152Y-90718700D01*
X155924151Y-90718700D01*
X155776560Y-90779834D01*
X155619878Y-90811000D01*
X155460122Y-90811000D01*
X155303440Y-90779834D01*
X155155849Y-90718700D01*
X155155848Y-90718700D01*
X155155847Y-90718699D01*
X155023018Y-90629945D01*
X154910055Y-90516982D01*
X154821301Y-90384153D01*
X154807569Y-90351000D01*
X154760166Y-90236560D01*
X154729000Y-90079878D01*
X154729000Y-89920122D01*
X154760166Y-89763440D01*
X154821300Y-89615849D01*
X154910055Y-89483018D01*
X155023018Y-89370055D01*
X155069517Y-89338985D01*
X155155847Y-89281301D01*
X155303440Y-89220166D01*
X155460122Y-89189000D01*
X155619878Y-89189000D01*
X155776560Y-89220166D01*
G37*
G36*
X158316560Y-89220166D02*
G01*
X158464153Y-89281301D01*
X158550483Y-89338985D01*
X158596982Y-89370055D01*
X158709945Y-89483018D01*
X158798700Y-89615849D01*
X158859834Y-89763440D01*
X158891000Y-89920122D01*
X158891000Y-90079878D01*
X158859834Y-90236560D01*
X158812432Y-90351000D01*
X158798699Y-90384153D01*
X158709945Y-90516982D01*
X158596982Y-90629945D01*
X158464153Y-90718699D01*
X158464152Y-90718700D01*
X158464151Y-90718700D01*
X158316560Y-90779834D01*
X158159878Y-90811000D01*
X158000122Y-90811000D01*
X157843440Y-90779834D01*
X157695849Y-90718700D01*
X157695848Y-90718700D01*
X157695847Y-90718699D01*
X157563018Y-90629945D01*
X157450055Y-90516982D01*
X157361301Y-90384153D01*
X157347569Y-90351000D01*
X157300166Y-90236560D01*
X157269000Y-90079878D01*
X157269000Y-89920122D01*
X157300166Y-89763440D01*
X157361300Y-89615849D01*
X157450055Y-89483018D01*
X157563018Y-89370055D01*
X157609517Y-89338985D01*
X157695847Y-89281301D01*
X157843440Y-89220166D01*
X158000122Y-89189000D01*
X158159878Y-89189000D01*
X158316560Y-89220166D01*
G37*
G36*
X153811000Y-90811000D02*
G01*
X152189000Y-90811000D01*
X152189000Y-89189000D01*
X153811000Y-89189000D01*
X153811000Y-90811000D01*
G37*
G36*
X184848228Y-88681703D02*
G01*
X185003100Y-88745853D01*
X185142481Y-88838985D01*
X185261015Y-88957519D01*
X185354147Y-89096900D01*
X185418297Y-89251772D01*
X185451000Y-89416184D01*
X185451000Y-89583816D01*
X185418297Y-89748228D01*
X185354147Y-89903100D01*
X185261015Y-90042481D01*
X185142481Y-90161015D01*
X185003100Y-90254147D01*
X184848228Y-90318297D01*
X184683816Y-90351000D01*
X184516184Y-90351000D01*
X184351772Y-90318297D01*
X184196900Y-90254147D01*
X184057519Y-90161015D01*
X183938985Y-90042481D01*
X183845853Y-89903100D01*
X183781703Y-89748228D01*
X183749000Y-89583816D01*
X183749000Y-89416184D01*
X183781703Y-89251772D01*
X183845853Y-89096900D01*
X183938985Y-88957519D01*
X184057519Y-88838985D01*
X184196900Y-88745853D01*
X184351772Y-88681703D01*
X184516184Y-88649000D01*
X184683816Y-88649000D01*
X184848228Y-88681703D01*
G37*
G36*
X182951000Y-90351000D02*
G01*
X181249000Y-90351000D01*
X181249000Y-88649000D01*
X182951000Y-88649000D01*
X182951000Y-90351000D01*
G37*
G36*
X138551228Y-87446703D02*
G01*
X138706100Y-87510853D01*
X138845481Y-87603985D01*
X138964015Y-87722519D01*
X139057147Y-87861900D01*
X139121297Y-88016772D01*
X139154000Y-88181184D01*
X139154000Y-88348816D01*
X139121297Y-88513228D01*
X139057147Y-88668100D01*
X138964015Y-88807481D01*
X138845481Y-88926015D01*
X138706100Y-89019147D01*
X138551228Y-89083297D01*
X138386816Y-89116000D01*
X138219184Y-89116000D01*
X138054772Y-89083297D01*
X137899900Y-89019147D01*
X137760519Y-88926015D01*
X137641985Y-88807481D01*
X137548853Y-88668100D01*
X137484703Y-88513228D01*
X137452000Y-88348816D01*
X137452000Y-88181184D01*
X137484703Y-88016772D01*
X137548853Y-87861900D01*
X137641985Y-87722519D01*
X137760519Y-87603985D01*
X137899900Y-87510853D01*
X138054772Y-87446703D01*
X138219184Y-87414000D01*
X138386816Y-87414000D01*
X138551228Y-87446703D01*
G37*
G36*
X146171228Y-87446703D02*
G01*
X146326100Y-87510853D01*
X146465481Y-87603985D01*
X146584015Y-87722519D01*
X146677147Y-87861900D01*
X146741297Y-88016772D01*
X146774000Y-88181184D01*
X146774000Y-88348816D01*
X146741297Y-88513228D01*
X146677147Y-88668100D01*
X146584015Y-88807481D01*
X146465481Y-88926015D01*
X146326100Y-89019147D01*
X146171228Y-89083297D01*
X146006816Y-89116000D01*
X145839184Y-89116000D01*
X145674772Y-89083297D01*
X145519900Y-89019147D01*
X145380519Y-88926015D01*
X145261985Y-88807481D01*
X145168853Y-88668100D01*
X145104703Y-88513228D01*
X145072000Y-88348816D01*
X145072000Y-88181184D01*
X145104703Y-88016772D01*
X145168853Y-87861900D01*
X145261985Y-87722519D01*
X145380519Y-87603985D01*
X145519900Y-87510853D01*
X145674772Y-87446703D01*
X145839184Y-87414000D01*
X146006816Y-87414000D01*
X146171228Y-87446703D01*
G37*
G36*
X126228228Y-87446703D02*
G01*
X126383100Y-87510853D01*
X126522481Y-87603985D01*
X126641015Y-87722519D01*
X126734147Y-87861900D01*
X126798297Y-88016772D01*
X126831000Y-88181184D01*
X126831000Y-88348816D01*
X126798297Y-88513228D01*
X126734147Y-88668100D01*
X126641015Y-88807481D01*
X126522481Y-88926015D01*
X126383100Y-89019147D01*
X126228228Y-89083297D01*
X126063816Y-89116000D01*
X125896184Y-89116000D01*
X125731772Y-89083297D01*
X125576900Y-89019147D01*
X125437519Y-88926015D01*
X125318985Y-88807481D01*
X125225853Y-88668100D01*
X125161703Y-88513228D01*
X125129000Y-88348816D01*
X125129000Y-88181184D01*
X125161703Y-88016772D01*
X125225853Y-87861900D01*
X125318985Y-87722519D01*
X125437519Y-87603985D01*
X125576900Y-87510853D01*
X125731772Y-87446703D01*
X125896184Y-87414000D01*
X126063816Y-87414000D01*
X126228228Y-87446703D01*
G37*
G36*
X133848228Y-87446703D02*
G01*
X134003100Y-87510853D01*
X134142481Y-87603985D01*
X134261015Y-87722519D01*
X134354147Y-87861900D01*
X134418297Y-88016772D01*
X134451000Y-88181184D01*
X134451000Y-88348816D01*
X134418297Y-88513228D01*
X134354147Y-88668100D01*
X134261015Y-88807481D01*
X134142481Y-88926015D01*
X134003100Y-89019147D01*
X133848228Y-89083297D01*
X133683816Y-89116000D01*
X133516184Y-89116000D01*
X133351772Y-89083297D01*
X133196900Y-89019147D01*
X133057519Y-88926015D01*
X132938985Y-88807481D01*
X132845853Y-88668100D01*
X132781703Y-88513228D01*
X132749000Y-88348816D01*
X132749000Y-88181184D01*
X132781703Y-88016772D01*
X132845853Y-87861900D01*
X132938985Y-87722519D01*
X133057519Y-87603985D01*
X133196900Y-87510853D01*
X133351772Y-87446703D01*
X133516184Y-87414000D01*
X133683816Y-87414000D01*
X133848228Y-87446703D01*
G37*
G36*
X162048228Y-85181703D02*
G01*
X162203100Y-85245853D01*
X162342481Y-85338985D01*
X162461015Y-85457519D01*
X162554147Y-85596900D01*
X162618297Y-85751772D01*
X162651000Y-85916184D01*
X162651000Y-86083816D01*
X162618297Y-86248228D01*
X162554147Y-86403100D01*
X162461015Y-86542481D01*
X162342481Y-86661015D01*
X162203100Y-86754147D01*
X162048228Y-86818297D01*
X161883816Y-86851000D01*
X161716184Y-86851000D01*
X161551772Y-86818297D01*
X161396900Y-86754147D01*
X161257519Y-86661015D01*
X161138985Y-86542481D01*
X161045853Y-86403100D01*
X160981703Y-86248228D01*
X160949000Y-86083816D01*
X160949000Y-85916184D01*
X160981703Y-85751772D01*
X161045853Y-85596900D01*
X161138985Y-85457519D01*
X161257519Y-85338985D01*
X161396900Y-85245853D01*
X161551772Y-85181703D01*
X161716184Y-85149000D01*
X161883816Y-85149000D01*
X162048228Y-85181703D01*
G37*
G36*
X169668228Y-85181703D02*
G01*
X169823100Y-85245853D01*
X169962481Y-85338985D01*
X170081015Y-85457519D01*
X170174147Y-85596900D01*
X170238297Y-85751772D01*
X170271000Y-85916184D01*
X170271000Y-86083816D01*
X170238297Y-86248228D01*
X170174147Y-86403100D01*
X170081015Y-86542481D01*
X169962481Y-86661015D01*
X169823100Y-86754147D01*
X169668228Y-86818297D01*
X169503816Y-86851000D01*
X169336184Y-86851000D01*
X169171772Y-86818297D01*
X169016900Y-86754147D01*
X168877519Y-86661015D01*
X168758985Y-86542481D01*
X168665853Y-86403100D01*
X168601703Y-86248228D01*
X168569000Y-86083816D01*
X168569000Y-85916184D01*
X168601703Y-85751772D01*
X168665853Y-85596900D01*
X168758985Y-85457519D01*
X168877519Y-85338985D01*
X169016900Y-85245853D01*
X169171772Y-85181703D01*
X169336184Y-85149000D01*
X169503816Y-85149000D01*
X169668228Y-85181703D01*
G37*
G36*
X118249239Y-79341467D02*
G01*
X118563282Y-79403934D01*
X119154926Y-79649001D01*
X119687392Y-80004784D01*
X120140216Y-80457608D01*
X120495999Y-80990074D01*
X120741066Y-81581718D01*
X120741066Y-81581719D01*
X120866000Y-82209803D01*
X120866000Y-82850197D01*
X120824761Y-83057519D01*
X120741066Y-83478282D01*
X120495999Y-84069926D01*
X120140216Y-84602392D01*
X119687392Y-85055216D01*
X119154926Y-85410999D01*
X118563282Y-85656066D01*
X118249239Y-85718533D01*
X117935197Y-85781000D01*
X117294803Y-85781000D01*
X116980761Y-85718533D01*
X116666718Y-85656066D01*
X116075074Y-85410999D01*
X115542608Y-85055216D01*
X115089784Y-84602392D01*
X114734001Y-84069926D01*
X114488934Y-83478282D01*
X114405239Y-83057519D01*
X114364000Y-82850197D01*
X114364000Y-82209803D01*
X114488934Y-81581719D01*
X114488934Y-81581718D01*
X114734001Y-80990074D01*
X115089784Y-80457608D01*
X115542608Y-80004784D01*
X116075074Y-79649001D01*
X116666718Y-79403934D01*
X116980761Y-79341467D01*
X117294803Y-79279000D01*
X117935197Y-79279000D01*
X118249239Y-79341467D01*
G37*
G36*
X183249239Y-79341467D02*
G01*
X183563282Y-79403934D01*
X184154926Y-79649001D01*
X184687392Y-80004784D01*
X185140216Y-80457608D01*
X185495999Y-80990074D01*
X185741066Y-81581718D01*
X185741066Y-81581719D01*
X185866000Y-82209803D01*
X185866000Y-82850197D01*
X185824761Y-83057519D01*
X185741066Y-83478282D01*
X185495999Y-84069926D01*
X185140216Y-84602392D01*
X184687392Y-85055216D01*
X184154926Y-85410999D01*
X183563282Y-85656066D01*
X183249239Y-85718533D01*
X182935197Y-85781000D01*
X182294803Y-85781000D01*
X181980761Y-85718533D01*
X181666718Y-85656066D01*
X181075074Y-85410999D01*
X180542608Y-85055216D01*
X180089784Y-84602392D01*
X179734001Y-84069926D01*
X179488934Y-83478282D01*
X179405239Y-83057519D01*
X179364000Y-82850197D01*
X179364000Y-82209803D01*
X179488934Y-81581719D01*
X179488934Y-81581718D01*
X179734001Y-80990074D01*
X180089784Y-80457608D01*
X180542608Y-80004784D01*
X181075074Y-79649001D01*
X181666718Y-79403934D01*
X181980761Y-79341467D01*
X182294803Y-79279000D01*
X182935197Y-79279000D01*
X183249239Y-79341467D01*
G37*
G36*
X133848228Y-83636703D02*
G01*
X134003100Y-83700853D01*
X134142481Y-83793985D01*
X134261015Y-83912519D01*
X134354147Y-84051900D01*
X134418297Y-84206772D01*
X134451000Y-84371184D01*
X134451000Y-84538816D01*
X134418297Y-84703228D01*
X134354147Y-84858100D01*
X134261015Y-84997481D01*
X134142481Y-85116015D01*
X134003100Y-85209147D01*
X133848228Y-85273297D01*
X133683816Y-85306000D01*
X133516184Y-85306000D01*
X133351772Y-85273297D01*
X133196900Y-85209147D01*
X133057519Y-85116015D01*
X132938985Y-84997481D01*
X132845853Y-84858100D01*
X132781703Y-84703228D01*
X132749000Y-84538816D01*
X132749000Y-84371184D01*
X132781703Y-84206772D01*
X132845853Y-84051900D01*
X132938985Y-83912519D01*
X133057519Y-83793985D01*
X133196900Y-83700853D01*
X133351772Y-83636703D01*
X133516184Y-83604000D01*
X133683816Y-83604000D01*
X133848228Y-83636703D01*
G37*
G36*
X126228228Y-83636703D02*
G01*
X126383100Y-83700853D01*
X126522481Y-83793985D01*
X126641015Y-83912519D01*
X126734147Y-84051900D01*
X126798297Y-84206772D01*
X126831000Y-84371184D01*
X126831000Y-84538816D01*
X126798297Y-84703228D01*
X126734147Y-84858100D01*
X126641015Y-84997481D01*
X126522481Y-85116015D01*
X126383100Y-85209147D01*
X126228228Y-85273297D01*
X126063816Y-85306000D01*
X125896184Y-85306000D01*
X125731772Y-85273297D01*
X125576900Y-85209147D01*
X125437519Y-85116015D01*
X125318985Y-84997481D01*
X125225853Y-84858100D01*
X125161703Y-84703228D01*
X125129000Y-84538816D01*
X125129000Y-84371184D01*
X125161703Y-84206772D01*
X125225853Y-84051900D01*
X125318985Y-83912519D01*
X125437519Y-83793985D01*
X125576900Y-83700853D01*
X125731772Y-83636703D01*
X125896184Y-83604000D01*
X126063816Y-83604000D01*
X126228228Y-83636703D01*
G37*
G36*
X177248228Y-82781703D02*
G01*
X177403100Y-82845853D01*
X177542481Y-82938985D01*
X177661015Y-83057519D01*
X177754147Y-83196900D01*
X177818297Y-83351772D01*
X177851000Y-83516184D01*
X177851000Y-83683816D01*
X177818297Y-83848228D01*
X177754147Y-84003100D01*
X177661015Y-84142481D01*
X177542481Y-84261015D01*
X177403100Y-84354147D01*
X177248228Y-84418297D01*
X177083816Y-84451000D01*
X176916184Y-84451000D01*
X176751772Y-84418297D01*
X176596900Y-84354147D01*
X176457519Y-84261015D01*
X176338985Y-84142481D01*
X176245853Y-84003100D01*
X176181703Y-83848228D01*
X176149000Y-83683816D01*
X176149000Y-83516184D01*
X176181703Y-83351772D01*
X176245853Y-83196900D01*
X176338985Y-83057519D01*
X176457519Y-82938985D01*
X176596900Y-82845853D01*
X176751772Y-82781703D01*
X176916184Y-82749000D01*
X177083816Y-82749000D01*
X177248228Y-82781703D01*
G37*
G36*
X173748228Y-82781703D02*
G01*
X173903100Y-82845853D01*
X174042481Y-82938985D01*
X174161015Y-83057519D01*
X174254147Y-83196900D01*
X174318297Y-83351772D01*
X174351000Y-83516184D01*
X174351000Y-83683816D01*
X174318297Y-83848228D01*
X174254147Y-84003100D01*
X174161015Y-84142481D01*
X174042481Y-84261015D01*
X173903100Y-84354147D01*
X173748228Y-84418297D01*
X173583816Y-84451000D01*
X173416184Y-84451000D01*
X173251772Y-84418297D01*
X173096900Y-84354147D01*
X172957519Y-84261015D01*
X172838985Y-84142481D01*
X172745853Y-84003100D01*
X172681703Y-83848228D01*
X172649000Y-83683816D01*
X172649000Y-83516184D01*
X172681703Y-83351772D01*
X172745853Y-83196900D01*
X172838985Y-83057519D01*
X172957519Y-82938985D01*
X173096900Y-82845853D01*
X173251772Y-82781703D01*
X173416184Y-82749000D01*
X173583816Y-82749000D01*
X173748228Y-82781703D01*
G37*
G36*
X169648228Y-81281703D02*
G01*
X169803100Y-81345853D01*
X169942481Y-81438985D01*
X170061015Y-81557519D01*
X170154147Y-81696900D01*
X170218297Y-81851772D01*
X170251000Y-82016184D01*
X170251000Y-82183816D01*
X170218297Y-82348228D01*
X170154147Y-82503100D01*
X170061015Y-82642481D01*
X169942481Y-82761015D01*
X169803100Y-82854147D01*
X169648228Y-82918297D01*
X169483816Y-82951000D01*
X169316184Y-82951000D01*
X169151772Y-82918297D01*
X168996900Y-82854147D01*
X168857519Y-82761015D01*
X168738985Y-82642481D01*
X168645853Y-82503100D01*
X168581703Y-82348228D01*
X168549000Y-82183816D01*
X168549000Y-82016184D01*
X168581703Y-81851772D01*
X168645853Y-81696900D01*
X168738985Y-81557519D01*
X168857519Y-81438985D01*
X168996900Y-81345853D01*
X169151772Y-81281703D01*
X169316184Y-81249000D01*
X169483816Y-81249000D01*
X169648228Y-81281703D01*
G37*
G36*
X162028228Y-81281703D02*
G01*
X162183100Y-81345853D01*
X162322481Y-81438985D01*
X162441015Y-81557519D01*
X162534147Y-81696900D01*
X162598297Y-81851772D01*
X162631000Y-82016184D01*
X162631000Y-82183816D01*
X162598297Y-82348228D01*
X162534147Y-82503100D01*
X162441015Y-82642481D01*
X162322481Y-82761015D01*
X162183100Y-82854147D01*
X162028228Y-82918297D01*
X161863816Y-82951000D01*
X161696184Y-82951000D01*
X161531772Y-82918297D01*
X161376900Y-82854147D01*
X161237519Y-82761015D01*
X161118985Y-82642481D01*
X161025853Y-82503100D01*
X160961703Y-82348228D01*
X160929000Y-82183816D01*
X160929000Y-82016184D01*
X160961703Y-81851772D01*
X161025853Y-81696900D01*
X161118985Y-81557519D01*
X161237519Y-81438985D01*
X161376900Y-81345853D01*
X161531772Y-81281703D01*
X161696184Y-81249000D01*
X161863816Y-81249000D01*
X162028228Y-81281703D01*
G37*
G36*
X140076425Y-77662760D02*
G01*
X140076428Y-77662761D01*
X140076429Y-77662761D01*
X140255693Y-77717140D01*
X140255696Y-77717142D01*
X140255697Y-77717142D01*
X140420903Y-77805446D01*
X140565712Y-77924288D01*
X140684554Y-78069097D01*
X140772858Y-78234303D01*
X140772860Y-78234307D01*
X140827239Y-78413571D01*
X140827240Y-78413575D01*
X140841000Y-78553282D01*
X140841000Y-80446718D01*
X140827240Y-80586425D01*
X140827239Y-80586428D01*
X140827239Y-80586429D01*
X140772860Y-80765693D01*
X140772858Y-80765696D01*
X140772858Y-80765697D01*
X140684554Y-80930903D01*
X140565712Y-81075712D01*
X140420903Y-81194554D01*
X140286090Y-81266612D01*
X140255692Y-81282860D01*
X140076428Y-81337239D01*
X140076427Y-81337239D01*
X140076424Y-81337240D01*
X139890000Y-81355601D01*
X139703575Y-81337240D01*
X139703572Y-81337239D01*
X139703571Y-81337239D01*
X139524307Y-81282860D01*
X139493909Y-81266612D01*
X139359097Y-81194554D01*
X139214288Y-81075712D01*
X139095446Y-80930903D01*
X139007142Y-80765696D01*
X139007141Y-80765693D01*
X139007140Y-80765692D01*
X138952761Y-80586428D01*
X138952761Y-80586427D01*
X138952760Y-80586424D01*
X138939000Y-80446717D01*
X138939000Y-78553283D01*
X138952761Y-78413575D01*
X138952762Y-78413571D01*
X139007141Y-78234307D01*
X139007143Y-78234303D01*
X139095447Y-78069097D01*
X139214289Y-77924288D01*
X139359098Y-77805446D01*
X139524304Y-77717142D01*
X139524305Y-77717142D01*
X139524308Y-77717140D01*
X139703572Y-77662761D01*
X139703573Y-77662761D01*
X139703576Y-77662760D01*
X139890000Y-77644399D01*
X140076425Y-77662760D01*
G37*
G36*
X153176425Y-77662760D02*
G01*
X153176428Y-77662761D01*
X153176429Y-77662761D01*
X153355693Y-77717140D01*
X153355696Y-77717142D01*
X153355697Y-77717142D01*
X153520903Y-77805446D01*
X153665712Y-77924288D01*
X153784554Y-78069097D01*
X153872858Y-78234303D01*
X153872860Y-78234307D01*
X153927239Y-78413571D01*
X153927240Y-78413575D01*
X153941000Y-78553282D01*
X153941000Y-80446718D01*
X153927240Y-80586425D01*
X153927239Y-80586428D01*
X153927239Y-80586429D01*
X153872860Y-80765693D01*
X153872858Y-80765696D01*
X153872858Y-80765697D01*
X153784554Y-80930903D01*
X153665712Y-81075712D01*
X153520903Y-81194554D01*
X153386090Y-81266612D01*
X153355692Y-81282860D01*
X153176428Y-81337239D01*
X153176427Y-81337239D01*
X153176424Y-81337240D01*
X152990000Y-81355601D01*
X152803575Y-81337240D01*
X152803572Y-81337239D01*
X152803571Y-81337239D01*
X152624307Y-81282860D01*
X152593909Y-81266612D01*
X152459097Y-81194554D01*
X152314288Y-81075712D01*
X152195446Y-80930903D01*
X152107142Y-80765696D01*
X152107141Y-80765693D01*
X152107140Y-80765692D01*
X152052761Y-80586428D01*
X152052761Y-80586427D01*
X152052760Y-80586424D01*
X152039000Y-80446717D01*
X152039000Y-78553283D01*
X152052761Y-78413575D01*
X152052762Y-78413571D01*
X152107141Y-78234307D01*
X152107143Y-78234303D01*
X152195447Y-78069097D01*
X152314289Y-77924288D01*
X152459098Y-77805446D01*
X152624304Y-77717142D01*
X152624305Y-77717142D01*
X152624308Y-77717140D01*
X152803572Y-77662761D01*
X152803573Y-77662761D01*
X152803576Y-77662760D01*
X152990000Y-77644399D01*
X153176425Y-77662760D01*
G37*
G36*
X144651000Y-81351000D02*
G01*
X142749000Y-81351000D01*
X142749000Y-77649000D01*
X144651000Y-77649000D01*
X144651000Y-81351000D01*
G37*
G36*
X157751000Y-81351000D02*
G01*
X155849000Y-81351000D01*
X155849000Y-77649000D01*
X157751000Y-77649000D01*
X157751000Y-81351000D01*
G37*
M02*
